# xmcd
#
# Track frame offsets:
#	150
#	15745
#	31852
#	45715
#	59090
#	81492
#	102027
#	117150
#	134655
#	152182
#	165357
#
# Disc length: 2413 seconds
#
# Revision: 2
# Processed by: cddbd v1.5.2PL0 Copyright (c) Steve Scherf et al.
# Submitted via: audiograbber 1.83.01
#
DISCID=8e096b0b
DTITLE=Simpson, Jenny - Jenny Simpson
DYEAR=1998
DGENRE=Country
TTITLE0=Ticket Out of Kansas
TTITLE1=Even When You're Not There (Get a Life)
TTITLE2=Million Miles Away, A
TTITLE3=Little Miracles
TTITLE4=You
TTITLE5=Foolish as That May Be
TTITLE6=Under the Rainbow
TTITLE7=Grow Young with You (w Michael Peterson)
TTITLE8=One Word
TTITLE9=So I Kissed Him
TTITLE10='til Then
EXTD=
EXTT0=
EXTT1=
EXTT2=
EXTT3=
EXTT4=
EXTT5=
EXTT6=
EXTT7=
EXTT8=
EXTT9=
EXTT10=
PLAYORDER=
